<svg width="91" height="91" viewBox="0 0 91 91" fill="none" xmlns="http://www.w3.org/2000/svg">
<path d="M45.5 15.9961C53.3736 15.9961 60.7852 19.0709 66.366 24.634C71.9291 30.2148 75.0039 37.6264 75.0039 45.5C75.0039 53.3736 71.9291 60.7852 66.366 66.366C60.7852 71.9291 53.3736 75.0039 45.5 75.0039C37.6264 75.0039 30.2148 71.9291 24.634 66.366C19.0709 60.7852 15.9961 53.3736 15.9961 45.5C15.9961 37.6264 19.0709 30.2148 24.634 24.634C30.2148 19.0709 37.6264 15.9961 45.5 15.9961ZM45.5 8.53125C25.0783 8.53125 8.53125 25.0783 8.53125 45.5C8.53125 65.9217 25.0783 82.4688 45.5 82.4688C65.9217 82.4688 82.4688 65.9217 82.4688 45.5C82.4688 25.0783 65.9217 8.53125 45.5 8.53125Z" fill="white"/>
<path d="M49.2324 63.9844H41.7676V41.7676H49.2324V63.9844ZM49.2324 34.4805H41.7676V27.0156H49.2324V34.4805Z" fill="white"/>
</svg>
