<svg width="52" height="52" viewBox="0 0 52 52" fill="none" xmlns="http://www.w3.org/2000/svg">
<path d="M38.5 1H13.5C6.59644 1 1 6.59644 1 13.5V38.5C1 45.4036 6.59644 51 13.5 51H38.5C45.4036 51 51 45.4036 51 38.5V13.5C51 6.59644 45.4036 1 38.5 1Z" stroke="white" stroke-width="2" stroke-linecap="round" stroke-linejoin="round"/>
<path d="M35.9998 24.4248C36.3083 26.5054 35.9529 28.6303 34.9842 30.4973C34.0154 32.3643 32.4826 33.8783 30.6038 34.824C28.725 35.7696 26.5959 36.0988 24.5192 35.7646C22.4426 35.4304 20.5242 34.45 19.0369 32.9627C17.5495 31.4754 16.5691 29.557 16.2349 27.4803C15.9008 25.4037 16.2299 23.2745 17.1756 21.3957C18.1212 19.5169 19.6352 17.9841 21.5022 17.0154C23.3692 16.0466 25.4941 15.6912 27.5748 15.9998C29.6971 16.3145 31.6619 17.3034 33.179 18.8205C34.6961 20.3377 35.685 22.3025 35.9998 24.4248Z" stroke="white" stroke-width="2" stroke-linecap="round" stroke-linejoin="round"/>
</svg>
