<svg width="32" height="37" viewBox="0 0 32 37" fill="none" xmlns="http://www.w3.org/2000/svg">
<path d="M30.9991 27.2042V32.4731C31.0008 32.9623 30.9147 33.4464 30.7464 33.8946C30.5781 34.3428 30.3313 34.7451 30.0218 35.0757C29.7122 35.4064 29.3467 35.6582 28.9488 35.8149C28.5508 35.9716 28.1292 36.0298 27.7108 35.9857C23.0692 35.3985 18.6106 33.5518 14.6934 30.5939C11.0488 27.8974 7.95889 24.2996 5.64301 20.0561C3.09379 15.4742 1.50736 10.2576 1.01224 4.82891C0.974549 4.34324 1.02412 3.85374 1.1578 3.3916C1.29149 2.92945 1.50635 2.50478 1.78871 2.14461C2.07108 1.78445 2.41475 1.49669 2.79786 1.29966C3.18097 1.10262 3.59512 1.00063 4.01394 1.00017H8.53912C9.27115 0.991781 9.98083 1.29361 10.5359 1.8494C11.0909 2.40519 11.4534 3.17702 11.5559 4.02101C11.7469 5.70718 12.1011 7.36278 12.6118 8.95623C12.8147 9.58485 12.8586 10.268 12.7383 10.9248C12.618 11.5816 12.3386 12.1845 11.933 12.662L10.0173 14.8925C12.1646 19.2895 15.2914 22.9302 19.0677 25.4304L20.9833 23.1999C21.3935 22.7276 21.9112 22.4022 22.4753 22.2621C23.0394 22.1221 23.6262 22.1732 24.1661 22.4095C25.5346 23.0041 26.9565 23.4165 28.4046 23.6389C29.1374 23.7593 29.8065 24.189 30.2849 24.8464C30.7633 25.5037 31.0174 26.3429 30.9991 27.2042Z" stroke="white" stroke-width="2" stroke-linecap="round" stroke-linejoin="round"/>
</svg>
