<svg width="74" height="77" viewBox="0 0 74 77" fill="none" xmlns="http://www.w3.org/2000/svg">
<g clip-path="url(#clip0_65_18)">
<path d="M49.0421 24.0175C48.4475 23.3374 47.006 23.0831 45.7235 23.0168C42.5238 22.8671 37.2136 23.0944 28.1383 26.8413C18.8048 30.6947 15.1341 34.0486 12.967 36.5408C12.0006 37.6624 11.1232 38.8868 11.188 39.7475C11.2578 40.733 11.9516 41.372 12.57 41.9408L12.8531 42.2043C13.4471 42.7704 14.7064 43.0619 15.7341 42.7644L44.6408 68.3321C44.8251 68.4969 45.0872 68.5408 45.3057 68.4506C45.5241 68.3604 45.679 68.1443 45.6933 67.8975L48.1446 29.472C48.6738 29.1774 49.7361 28.4853 49.7987 26.9761C49.8416 25.9821 49.7866 24.8638 49.0421 24.0175ZM27.6749 47.1403C27.7123 47.5686 27.6821 47.9741 27.5934 48.3784C27.5175 48.7013 27.1565 48.8123 26.9013 48.5881C25.2851 47.1507 23.7345 45.7877 22.3593 44.5679C22.104 44.3437 22.1496 43.9191 22.433 43.7894L22.5323 43.7484C22.8997 43.5968 23.284 43.5142 23.6906 43.4857C24.6698 43.4365 25.6187 43.7927 26.3791 44.4803C27.1197 45.1762 27.5872 46.1115 27.6749 47.1403ZM43.6127 52.9214C43.5958 53.1059 43.4871 53.2649 43.3193 53.3088C41.5509 53.8107 39.6141 52.8354 38.8539 50.9939C38.0399 49.0225 38.8873 46.7963 40.7441 46.0297C41.7271 45.6239 42.8095 45.6841 43.7481 46.1841C43.911 46.269 44.0158 46.4666 43.999 46.651L43.6127 52.9214ZM39.2011 32.3277C38.8185 33.0055 38.2516 33.5184 37.5466 33.8095C37.3877 33.8751 37.2145 33.9339 37.0467 33.9779C36.1292 34.2045 35.1733 34.0286 34.3529 33.5052C34.038 33.3056 33.7495 33.0571 33.5205 32.7839C33.3004 32.5325 33.3937 32.139 33.6806 32.0459C35.5424 31.404 37.3153 30.9129 39.0481 30.5779C39.3827 30.5158 39.6783 30.8375 39.6158 31.1929C39.5424 31.5782 39.4006 31.9664 39.2011 32.3277Z" fill="white"/>
</g>
<defs>
<clipPath id="clip0_65_18">
<rect width="55" height="60" fill="white" transform="translate(0 20.989) rotate(-22.434)"/>
</clipPath>
</defs>
</svg>
