<svg width="49" height="56" viewBox="0 0 49 56" fill="none" xmlns="http://www.w3.org/2000/svg">
<path d="M41.8127 39.9C40.4058 38.2922 37.0275 35.875 35.3623 34.9672C33.4291 33.9063 32.7209 33.9282 31.3523 35.0547C30.2135 35.9954 29.4766 36.8704 28.1654 36.5422C26.8543 36.225 24.2703 33.9829 21.7629 31.1282C19.2555 28.2625 17.3031 25.3094 17.0256 23.811C16.748 22.3016 17.5137 21.4704 18.3271 20.1688C19.3129 18.6047 19.3416 17.7954 18.4037 15.586C17.6094 13.6719 15.5039 9.82192 14.0875 8.21411C12.6807 6.6063 12.3648 6.9563 11.5896 7.27348C11.5896 7.27348 10.4412 7.79848 9.30234 8.66255C7.8955 9.73442 7.11073 10.6313 6.55566 11.9766C6.01015 13.3219 5.37851 15.8266 8.59413 22.3672C11.1877 27.65 13.7334 31.6532 17.5137 35.9625L17.5232 35.9735L17.5328 35.9844C21.3131 40.3047 24.8062 43.2141 29.4287 46.1782C35.1517 49.8532 37.3434 49.1313 38.5205 48.5079C39.6976 47.8844 40.4824 46.9875 41.4203 45.3688C42.1764 44.0672 42.6357 42.7547 42.6357 42.7547C42.9133 41.8688 43.2291 41.5079 41.8127 39.9Z" fill="white"/>
</svg>
